<?xml version="1.0" standalone="no"?><!DOCTYPE svg PUBLIC "-//W3C//DTD SVG 1.1//EN" "http://www.w3.org/Graphics/SVG/1.1/DTD/svg11.dtd"><svg t="1627370580390" class="icon" viewBox="0 0 1024 1024" version="1.1" xmlns="http://www.w3.org/2000/svg" p-id="17828" xmlns:xlink="http://www.w3.org/1999/xlink" width="200" height="200"><defs><style type="text/css">@font-face { font-family: feedback-iconfont; src: url("//at.alicdn.com/t/font_1031158_1uhr8ri0pk5.eot?#iefix") format("embedded-opentype"), url("//at.alicdn.com/t/font_1031158_1uhr8ri0pk5.woff2") format("woff2"), url("//at.alicdn.com/t/font_1031158_1uhr8ri0pk5.woff") format("woff"), url("//at.alicdn.com/t/font_1031158_1uhr8ri0pk5.ttf") format("truetype"), url("//at.alicdn.com/t/font_1031158_1uhr8ri0pk5.svg#iconfont") format("svg"); }
</style></defs><path d="M819.2 189.44a30.72 30.72 0 0 1 1.152 61.41952L819.2 250.88H143.36a30.72 30.72 0 0 1-1.152-61.41952L143.36 189.44h675.84zM819.2 435.2a30.72 30.72 0 0 1 1.152 61.41952L819.2 496.64H143.3856a30.72 30.72 0 0 1-1.152-61.41952l1.152-0.02048H819.2zM542.72 680.96a30.72 30.72 0 0 1 1.152 61.41952L542.72 742.4H143.3856a30.72 30.72 0 0 1-1.152-61.41952l1.152-0.02048H542.72zM880.64 680.98048a30.72 30.72 0 0 1 1.152 61.41952l-1.152 0.02048h-184.32a30.72 30.72 0 0 1-1.152-61.4144l1.152-0.0256h184.32z" fill="#868686" p-id="17829"></path><path d="M788.48 588.82048a30.72 30.72 0 0 1 30.69952 29.568l0.02048 1.152v184.32a30.72 30.72 0 0 1-61.41952 1.152l-0.02048-1.152v-184.32a30.72 30.72 0 0 1 30.72-30.72z" fill="#868686" p-id="17830"></path></svg>